<?xml version="1.0" standalone="no"?>
<!DOCTYPE svg PUBLIC "-//W3C//DTD SVG 20010904//EN"
 "http://www.w3.org/TR/2001/REC-SVG-20010904/DTD/svg10.dtd">
<svg version="1.0" xmlns="http://www.w3.org/2000/svg"
 width="96.000000pt" height="96.000000pt" viewBox="0 0 96.000000 96.000000"
 preserveAspectRatio="xMidYMid meet">
<metadata>
Created by potrace 1.14, written by Peter Selinger 2001-2017
</metadata>
<g transform="translate(0.000000,96.000000) scale(0.100000,-0.100000)"
fill="#000000" stroke="none">
<path d="M39 921 c-27 -28 -29 -34 -29 -110 l0 -81 468 2 467 3 3 78 c3 75 2
79 -27 107 l-29 30 -412 0 -412 0 -29 -29z m149 -79 c5 -17 -30 -31 -55 -21
-27 10 -29 24 -6 37 19 11 55 1 61 -16z m120 0 c5 -17 -30 -31 -55 -21 -27 10
-29 24 -6 37 19 11 55 1 61 -16z m535 9 c26 -26 -15 -36 -144 -34 -68 1 -130
2 -136 2 -19 1 -16 39 4 43 47 9 264 1 276 -11z"/>
<path d="M17 673 c-4 -3 -7 -141 -7 -305 l0 -300 29 -29 29 -29 412 0 412 0
29 29 29 29 0 306 0 306 -463 0 c-255 0 -467 -3 -470 -7z m321 -263 c1 -57 8
-110 14 -117 8 -10 8 -20 0 -36 -5 -12 -13 -30 -16 -40 -8 -25 -40 -17 -44 10
-3 18 -11 22 -50 25 -43 3 -47 5 -50 31 -3 22 44 124 105 230 3 4 12 7 21 5
14 -3 17 -20 20 -108z m197 85 c26 -25 27 -33 27 -158 -1 -110 -34 -151 -107
-133 -46 12 -58 46 -58 164 1 102 2 107 27 129 36 30 80 30 111 -2z m213 -85
c1 -57 8 -110 14 -117 8 -10 8 -20 0 -36 -5 -12 -13 -30 -16 -39 -8 -26 -33
-22 -40 6 -5 21 -13 25 -54 28 -43 3 -47 5 -50 30 -2 19 15 62 54 133 76 138
88 138 92 -5z"/>
<path d="M261 353 c-17 -34 -19 -48 -10 -54 25 -15 39 3 39 52 0 27 -1 49 -3
49 -2 0 -13 -21 -26 -47z"/>
<path d="M448 463 c0 -5 -2 -49 -3 -100 -2 -79 0 -95 16 -109 18 -16 20 -16
38 0 16 14 18 30 16 109 -3 115 0 107 -35 107 -16 0 -31 -3 -32 -7z"/>
<path d="M675 351 c-26 -52 -24 -62 10 -52 16 5 20 15 20 54 1 26 0 47 -2 47
-1 0 -14 -22 -28 -49z"/>
</g>
</svg>
